#N canvas 1114 244 1426 671 10;
#X floatatom 674 315 5 0 0 0 - - -, f 5;
#X floatatom 733 315 5 0 0 0 - - -, f 5;
#X floatatom 785 315 5 0 0 0 - - -, f 5;
#X floatatom 854 315 5 0 0 0 - - -, f 5;
#X obj 784 379 * 100;
#X obj 531 606 dac~;
#X obj 232 468 *~;
#X obj 125 230 unpack s f f f f f f f;
#X symbolatom 45 334 10 0 0 0 - - -, f 10;
#X floatatom 120 335 5 0 0 0 - - -, f 5;
#X floatatom 175 338 5 0 0 0 - - -, f 5;
#X floatatom 228 339 5 0 0 0 - - -, f 5;
#X floatatom 290 338 5 0 0 0 - - -, f 5;
#X floatatom 345 341 5 0 0 0 - - -, f 5;
#X floatatom 393 342 5 0 0 0 - - -, f 5;
#X floatatom 446 340 5 0 0 0 - - -, f 5;
#X obj 230 389 * 100;
#X obj 790 472 *~;
#X obj 800 426 osc~;
#X obj 232 421 osc~;
#X obj 316 409 / 4096;
#X obj 704 234 unpack f f f f f;
#X floatatom 621 315 5 0 0 0 - - -, f 5;
#X obj 927 399 * 10;
#X obj 125 82 oscparse;
#X obj 125 103 list trim;
#X obj 125 150 route tb;
#X obj 126 194 route key device;
#X obj 124 58 netreceive -b -u 9001;
#X obj 703 82 oscparse;
#X obj 703 103 list trim;
#X obj 703 150 route tb;
#X obj 702 58 netreceive -b -u 9002;
#X obj 704 194 route touch device;
#X connect 0 0 4 0;
#X connect 2 0 23 0;
#X connect 4 0 18 0;
#X connect 6 0 5 0;
#X connect 6 0 5 1;
#X connect 7 0 8 0;
#X connect 7 1 9 0;
#X connect 7 2 10 0;
#X connect 7 3 11 0;
#X connect 7 3 16 0;
#X connect 7 4 12 0;
#X connect 7 5 13 0;
#X connect 7 6 14 0;
#X connect 7 7 15 0;
#X connect 13 0 20 0;
#X connect 16 0 19 0;
#X connect 17 0 5 0;
#X connect 17 0 5 1;
#X connect 18 0 17 0;
#X connect 19 0 6 0;
#X connect 20 0 6 1;
#X connect 21 0 22 0;
#X connect 21 1 0 0;
#X connect 21 2 1 0;
#X connect 21 3 2 0;
#X connect 21 4 3 0;
#X connect 23 0 17 1;
#X connect 24 0 25 0;
#X connect 25 0 26 0;
#X connect 26 0 27 0;
#X connect 27 0 7 0;
#X connect 28 0 24 0;
#X connect 29 0 30 0;
#X connect 30 0 31 0;
#X connect 31 0 33 0;
#X connect 32 0 29 0;
#X connect 33 0 21 0;
