#N canvas 811 184 1541 1189 10;
#X floatatom 662 495 5 0 0 0 - - -, f 5;
#X floatatom 881 491 5 0 0 0 - - -, f 5;
#X floatatom 1154 429 5 0 0 0 - - -, f 5;
#X floatatom 587 493 5 0 0 0 - - -, f 5;
#X obj 703 82 oscparse;
#X obj 703 103 list trim;
#X obj 703 150 route tb;
#X obj 702 58 netreceive -b -u 9002;
#X obj 704 194 route touch device;
#X obj 704 234 unpack f f f f;
#X obj 1366 1002 noteout;
#X obj 650 982 bendout;
#X obj 659 583 int;
#X obj 655 624 -;
#X obj 659 540 t f f;
#X obj 750 983 ctlout 74;
#X obj 649 865 * 127;
#X obj 649 890 - 63;
#X obj 882 514 t f f;
#X obj 886 542 int;
#X obj 883 577 -;
#X obj 749 891 * 127;
#X obj 1387 784 * 4;
#X obj 1366 815 +;
#N canvas 0 22 450 278 (subpatch) 0;
#X array touches 16 float 2;
#X coords 0 1 16 -1 200 140 1;
#X restore 38 -6 graph;
#X obj 716 609 tabread touches;
#X obj 1173 1017 tabwrite touches;
#X obj 1326 847 int;
#X obj 1458 816 * 127;
#X obj 1151 564 sel 1;
#X obj 845 982 touchout;
#X obj 846 891 * 127;
#X obj 1151 526 < 5e-05;
#X msg 1173 993 0;
#X obj 1442 847 int;
#X obj 1386 741 + 48;
#X obj 623 698 + 2;
#X obj 749 948 change;
#X obj 749 925 int;
#X obj 846 946 change;
#X obj 846 923 int;
#X obj 649 947 change;
#X obj 649 924 int;
#X obj 1382 962 int 63;
#X obj 1001 987 noteout;
#X obj 1042 945 int 0;
#X obj 1002 900 int;
#X obj 1062 820 t b b b;
#X obj 586 389 float;
#X obj 675 388 float;
#X obj 760 385 float;
#X obj 840 385 float;
#X obj 535 331 t b b b b;
#X obj 648 265 t b f;
#X obj 1272 745 ==;
#X obj 1270 776 sel 1;
#X obj 1281 829 t b;
#X obj 1061 741 int;
#X obj 1061 763 > 0;
#X obj 1061 788 sel 1;
#X obj 1108 887 bng 15 250 50 0 empty empty empty 17 7 0 10 -262144
-1 -1;
#X obj 1266 809 bng 15 250 50 0 empty empty empty 17 7 0 10 -262144
-1 -1;
#X connect 0 0 14 0;
#X connect 1 0 18 0;
#X connect 2 0 28 0;
#X connect 2 0 31 0;
#X connect 2 0 32 0;
#X connect 3 0 25 0;
#X connect 3 0 26 1;
#X connect 3 0 36 0;
#X connect 4 0 5 0;
#X connect 5 0 6 0;
#X connect 6 0 8 0;
#X connect 7 0 4 0;
#X connect 8 0 9 0;
#X connect 9 0 53 0;
#X connect 9 1 49 1;
#X connect 9 2 50 1;
#X connect 9 3 51 1;
#X connect 12 0 13 1;
#X connect 12 0 35 0;
#X connect 13 0 16 0;
#X connect 14 0 13 0;
#X connect 14 1 12 0;
#X connect 16 0 17 0;
#X connect 17 0 42 0;
#X connect 18 0 20 0;
#X connect 18 1 19 0;
#X connect 19 0 22 0;
#X connect 19 0 20 1;
#X connect 20 0 21 0;
#X connect 21 0 38 0;
#X connect 22 0 23 1;
#X connect 23 0 27 1;
#X connect 25 0 46 1;
#X connect 25 0 54 1;
#X connect 25 0 57 1;
#X connect 27 0 26 0;
#X connect 27 0 10 0;
#X connect 28 0 34 1;
#X connect 29 0 57 0;
#X connect 29 1 54 0;
#X connect 31 0 40 0;
#X connect 32 0 29 0;
#X connect 33 0 26 0;
#X connect 35 0 23 0;
#X connect 36 0 10 2;
#X connect 36 0 11 1;
#X connect 36 0 30 1;
#X connect 36 0 15 2;
#X connect 36 0 44 2;
#X connect 37 0 15 0;
#X connect 38 0 37 0;
#X connect 39 0 30 0;
#X connect 40 0 39 0;
#X connect 42 0 41 0;
#X connect 43 0 10 1;
#X connect 45 0 44 1;
#X connect 46 0 44 0;
#X connect 47 0 33 0;
#X connect 47 1 46 0;
#X connect 47 2 45 0;
#X connect 47 2 60 0;
#X connect 48 0 3 0;
#X connect 49 0 0 0;
#X connect 50 0 1 0;
#X connect 51 0 2 0;
#X connect 52 0 51 0;
#X connect 52 1 50 0;
#X connect 52 2 49 0;
#X connect 52 3 48 0;
#X connect 53 0 52 0;
#X connect 53 1 48 1;
#X connect 54 0 55 0;
#X connect 55 0 56 0;
#X connect 55 0 61 0;
#X connect 56 0 27 0;
#X connect 57 0 58 0;
#X connect 58 0 59 0;
#X connect 59 0 47 0;
