#N canvas 1394 156 1859 1084 10;
#X msg 7 53 \; pd dsp 1;
#X obj 14 8 loadbang;
#X obj 1059 159 r knob1Raw;
#X msg 1059 195 knob1Raw \$1;
#X obj 1064 32 hsl 128 15 0 1024 0 0 knob1Raw empty knob1 -2 -8 0 10
-262144 -1 -1 0 1;
#X obj 1063 65 hsl 128 15 0 1024 0 0 knob3Raw empty knob3 -2 -8 0 10
-262144 -1 -1 0 1;
#X obj 1218 32 hsl 128 15 0 1024 0 0 knob2Raw empty knob2 -2 -8 0 10
-262144 -1 -1 0 1;
#X obj 1218 66 hsl 128 15 0 1024 0 0 knob4Raw empty knob4 -2 -8 0 10
-262144 -1 -1 0 1;
#X obj 1141 158 r knob2Raw;
#X obj 1225 157 r knob3Raw;
#X obj 1314 157 r knob4Raw;
#X msg 1314 193 knob4Raw \$1;
#X msg 1225 193 knob3Raw \$1;
#X msg 1141 194 knob2Raw \$1;
#X obj 935 31 nbx 5 14 0 5 0 0 page empty page 0 -8 0 10 -262144 -1
-1 0 256;
#X obj 937 158 r page;
#X msg 936 195 page \$1;
#X obj 844 32 bng 15 250 50 0 empty empty empty 17 7 0 10 -262144 -1
-1;
#X msg 844 52 connect 9001;
#X obj 1402 157 r enc;
#X msg 1402 193 enc \$1;
#X msg 1491 193 encbut \$1;
#X obj 1491 157 r encbut;
#X obj 120 82 Kontrol kontrolhost-param;
#X obj 1117 447 KontrolHost~ 9000;
#X obj 82 149 r o_shape;
#X obj 184 150 r o_colour;
#X obj 82 171 print o_shape;
#X obj 184 172 print o_colour;
#X obj 284 173 print o_timbre;
#X obj 284 151 r o_timbre;
#X obj 403 154 r o_transpose;
#X obj 403 176 print o_transpose;
#X obj 86 208 r e_attack;
#X obj 201 204 r e_decay;
#X obj 201 226 print e_decay;
#X obj 307 204 r e_sustain;
#X obj 306 229 print e_sustain;
#X obj 86 230 print e_attack;
#X obj 419 212 r e_release;
#X obj 419 234 print e_release;
#X obj 83 278 r f_cutoff;
#X obj 83 300 print f_cutoff;
#X obj 202 287 r f_reson;
#X obj 202 309 print f_reson;
#X obj 320 289 r f_env;
#X obj 320 311 print f_env;
#X obj 425 286 r f_env_amt;
#X obj 425 308 print f_env_amt;
#X obj 90 345 r r_amt;
#X obj 90 367 print r_amt;
#X obj 203 351 r r_time;
#X obj 203 373 print r_time;
#X obj 323 360 r r_diff;
#X obj 323 382 print r_diff;
#X obj 441 364 r r_cutoff;
#X obj 441 386 print r_cutoff;
#X connect 1 0 0 0;
#X connect 2 0 3 0;
#X connect 3 0 24 0;
#X connect 8 0 13 0;
#X connect 9 0 12 0;
#X connect 10 0 11 0;
#X connect 11 0 24 0;
#X connect 12 0 24 0;
#X connect 13 0 24 0;
#X connect 15 0 16 0;
#X connect 16 0 24 0;
#X connect 17 0 18 0;
#X connect 19 0 20 0;
#X connect 20 0 24 0;
#X connect 21 0 24 0;
#X connect 22 0 21 0;
#X connect 25 0 27 0;
#X connect 26 0 28 0;
#X connect 30 0 29 0;
#X connect 31 0 32 0;
#X connect 33 0 38 0;
#X connect 34 0 35 0;
#X connect 36 0 37 0;
#X connect 39 0 40 0;
#X connect 41 0 42 0;
#X connect 43 0 44 0;
#X connect 45 0 46 0;
#X connect 47 0 48 0;
#X connect 49 0 50 0;
#X connect 51 0 52 0;
#X connect 53 0 54 0;
#X connect 55 0 56 0;
